<svg width="42" height="41" viewBox="0 0 42 41" fill="none" xmlns="http://www.w3.org/2000/svg">
<path fill-rule="evenodd" clip-rule="evenodd" d="M12.9801 9.52975C11.4629 11.1435 10.3032 13.1066 9.58794 15.2721C8.87264 17.4377 8.6202 19.7497 8.84947 22.0354C8.91573 22.7131 8.72984 23.3914 8.3327 23.9211C7.93556 24.4508 7.35969 24.7886 6.73178 24.8601C6.10388 24.9316 5.47536 24.731 4.98451 24.3024C4.49366 23.8738 4.18068 23.2523 4.11442 22.5747C3.81052 19.5215 4.14956 16.4336 5.10626 13.5417C6.06295 10.6497 7.61257 8.02824 9.63944 5.87306C17.1013 -2.06689 29.1269 -1.93336 36.5007 6.13499C43.877 14.2059 43.8317 27.1866 36.3723 35.1266C32.9187 38.8088 28.2822 40.9115 23.4282 40.9968C21.5937 41.0317 19.7641 40.7809 17.996 40.2521C17.6879 40.1692 17.3982 40.0205 17.1442 39.8149C16.8901 39.6093 16.6768 39.3508 16.5167 39.0548C16.3567 38.7588 16.2531 38.4313 16.2122 38.0914C16.1713 37.7516 16.1939 37.4063 16.2785 37.076C16.3632 36.7457 16.5082 36.437 16.7052 36.1681C16.9021 35.8993 17.1469 35.6757 17.4251 35.5105C17.7034 35.3454 18.0094 35.242 18.3253 35.2065C18.6411 35.171 18.9604 35.204 19.2642 35.3038C20.5916 35.7009 21.9653 35.8886 23.3425 35.861C26.9751 35.7992 30.4453 34.2261 33.0292 31.4699C38.6042 25.538 38.6565 15.8083 33.1124 9.74289C27.5684 3.67494 18.5551 3.5979 12.9825 9.52975H12.9801Z" fill="#4FCB8F"/>
<path fill-rule="evenodd" clip-rule="evenodd" d="M8.24974 24.6547C8.04197 24.9066 7.79024 25.1119 7.50894 25.2589C7.22764 25.4058 6.92228 25.4915 6.61028 25.5111C6.29829 25.5306 5.98579 25.4836 5.69062 25.3728C5.39545 25.262 5.12339 25.0896 4.89 24.8653L0.797389 20.9364C0.325985 20.4835 0.0405971 19.847 0.00400636 19.167C-0.0325844 18.4871 0.18262 17.8192 0.602276 17.3105C1.02193 16.8018 1.61166 16.4938 2.24174 16.4543C2.87181 16.4148 3.49062 16.647 3.96202 17.0999L8.05463 21.0288C8.28807 21.2531 8.47831 21.5247 8.61446 21.8283C8.75061 22.1319 8.83001 22.4614 8.84812 22.7981C8.86624 23.1348 8.82272 23.4721 8.72005 23.7907C8.61738 24.1092 8.45757 24.4028 8.24974 24.6547V24.6547Z" fill="#4FCB8F"/>
<path d="M18.7925 11.5176V20.8926H25.2378C26.7026 20.8926 27.4351 20.0625 27.4351 18.4023V14.0078C27.4351 12.3477 26.7026 11.5176 25.2378 11.5176H18.7925ZM15.8628 31.5859V9.61328L17.4155 8.88086H25.2378C28.6558 8.88086 30.3647 10.5898 30.3647 14.0078V18.4023C30.3647 21.5859 28.8853 23.2852 25.9263 23.5L30.7163 30.3701L28.1382 31.5859H27.9917L22.3521 23.5293H18.7925V30.2676L16.0093 31.5859H15.8628Z" fill="#4FCB8F"/>
<rect width="10.8142" height="4.91987" rx="2.45994" transform="matrix(0.758611 -0.651544 0.59906 0.800704 3.32178 22.5315)" fill="#4FCB8F"/>
</svg>
