<svg width="25" height="25" viewBox="0 0 25 25" fill="none" xmlns="http://www.w3.org/2000/svg">
<g clip-path="url(#clip0_113_11)">
<path d="M16.8182 21.875V24.5536C16.8182 24.6838 16.7756 24.7907 16.6903 24.8744C16.6051 24.9581 16.4962 25 16.3636 25H12.7273C12.5947 25 12.4858 24.9581 12.4006 24.8744C12.3153 24.7907 12.2727 24.6838 12.2727 24.5536V21.875C12.2727 21.7448 12.3153 21.6378 12.4006 21.5541C12.4858 21.4704 12.5947 21.4286 12.7273 21.4286H16.3636C16.4962 21.4286 16.6051 21.4704 16.6903 21.5541C16.7756 21.6378 16.8182 21.7448 16.8182 21.875ZM10 20.0893C10 20.2009 9.95266 20.3125 9.85796 20.4241L5.32671 24.8744C5.23202 24.9581 5.12311 25 5.00001 25C4.88637 25 4.77747 24.9581 4.6733 24.8744L0.127849 20.4102C-0.0141963 20.2613 -0.0473403 20.0986 0.0284173 19.9219C0.104175 19.7359 0.24622 19.6429 0.454554 19.6429H3.18183V0.446429C3.18183 0.31622 3.22444 0.209263 3.30967 0.125558C3.39489 0.0418527 3.5038 0 3.63637 0H6.36364C6.49622 0 6.60512 0.0418527 6.69035 0.125558C6.77558 0.209263 6.81819 0.31622 6.81819 0.446429V19.6429H9.54546C9.67804 19.6429 9.78694 19.6847 9.87217 19.7684C9.95739 19.8521 10 19.9591 10 20.0893ZM19.5455 14.7321V17.4107C19.5455 17.5409 19.5028 17.6479 19.4176 17.7316C19.3324 17.8153 19.2235 17.8571 19.0909 17.8571H12.7273C12.5947 17.8571 12.4858 17.8153 12.4006 17.7316C12.3153 17.6479 12.2727 17.5409 12.2727 17.4107V14.7321C12.2727 14.6019 12.3153 14.495 12.4006 14.4113C12.4858 14.3276 12.5947 14.2857 12.7273 14.2857H19.0909C19.2235 14.2857 19.3324 14.3276 19.4176 14.4113C19.5028 14.495 19.5455 14.6019 19.5455 14.7321ZM22.2727 7.58929V10.2679C22.2727 10.3981 22.2301 10.505 22.1449 10.5887C22.0597 10.6724 21.9508 10.7143 21.8182 10.7143H12.7273C12.5947 10.7143 12.4858 10.6724 12.4006 10.5887C12.3153 10.505 12.2727 10.3981 12.2727 10.2679V7.58929C12.2727 7.45908 12.3153 7.35212 12.4006 7.26842C12.4858 7.18471 12.5947 7.14286 12.7273 7.14286H21.8182C21.9508 7.14286 22.0597 7.18471 22.1449 7.26842C22.2301 7.35212 22.2727 7.45908 22.2727 7.58929ZM25 0.446429V3.125C25 3.25521 24.9574 3.36217 24.8722 3.44587C24.7869 3.52958 24.678 3.57143 24.5455 3.57143H12.7273C12.5947 3.57143 12.4858 3.52958 12.4006 3.44587C12.3153 3.36217 12.2727 3.25521 12.2727 3.125V0.446429C12.2727 0.31622 12.3153 0.209263 12.4006 0.125558C12.4858 0.0418527 12.5947 0 12.7273 0H24.5455C24.678 0 24.7869 0.0418527 24.8722 0.125558C24.9574 0.209263 25 0.31622 25 0.446429Z" fill="white"/>
</g>
<defs>
<clipPath id="clip0_113_11">
<rect width="25" height="25" fill="white"/>
</clipPath>
</defs>
</svg>
